<svg xmlns="http://www.w3.org/2000/svg" viewBox="0 0 272.76 216.4" xmlns:v="https://vecta.io/nano">
    <path
        d="M272.76 194.72c0 .62 0 1.27-.32 1.8-.41.68-1.24.96-1.99 1.2-54.56 17.31-113.47 22.31-170.31 16.19-42.44-4.57-73.19-23.26-91.93-62.33-4.01-8.37-6.44-17.25-8.18-26.37a1.84 1.84 0 0 1-.03-.33V1.68A1.69 1.69 0 0 1 1.68 0h269.37a1.69 1.69 0 0 1 1.68 1.68v167.6l.03 25.44z"
        fill="#c61f27" />
    <circle cx="99.15" cy="108.33" r="73.33" fill="#fff" opacity=".05" />
    <path
        d="M272.76 194.72c0 .62 0 1.27-.32 1.8-.41.68-1.24.96-1.99 1.2-39.32 12.19-80.37 18.17-121.51 18.39a72.98 72.98 0 0 1-1.01-12.18c0-40.5 32.83-73.33 73.33-73.33 20.05 0 38.23 8.05 51.47 21.1v17.59l.03 25.44z"
        opacity=".05" fill="#333" />
    <path
        d="M272.73,0v116.34c-5.19,1.16-10.59,1.78-16.13,1.78-40.5,0-73.33-32.83-73.33-73.33,0-16.87,5.69-32.41,15.27-44.79h74.19Z"
        fill="#fff" opacity=".05" />
</svg>