<svg xmlns="http://www.w3.org/2000/svg" viewBox="0 0 276.38 117.45" xmlns:v="https://vecta.io/nano">
    <defs>
        <clipPath id="A">
            <path
                d="M0 52.47V0h276.38v103.47l-4.85 1.81c-32.41 11.59-36.28 15.08-71.86 9.7-12.95-1.96-30.48-1.57-49.31-.77-37.82 1.59-80.85 4.81-102.43-6.09C27.75 97.93 19.05 86.99 8.31 71.29 4.23 65.33 1.77 58.99 0 52.48z"
                stroke-width="0" fill="none" />
        </clipPath>
    </defs>
    <g clip-path="url(#A)">
        <path
            d="M-.75 52.86V.38h276.38v103.47l-4.85 1.81c-32.41 11.59-36.28 15.08-71.86 9.7-12.95-1.96-30.48-1.57-49.31-.77-37.82 1.59-80.85 4.81-102.43-6.09C27 98.31 18.3 87.37 7.56 71.67c-4.08-5.96-6.54-12.3-8.31-18.81z"
            fill="#c61f27" />
        <g fill="#fff">
            <circle cx="112.17" cy="108.09" r="74.31" opacity=".05" />
            <path
                d="M288.07-1.69v117.9c-5.26,1.18-10.73,1.81-16.35,1.81-41.04,0-74.31-33.27-74.31-74.31,0-17.09,5.77-32.84,15.48-45.39h75.18Z"
                opacity=".05" />
        </g>
    </g>
</svg>